{"title":"Step Up 3D Real 3D Half SBS 1080p AC3 MKV","uid":7079308,"size":1552026944,"categoryP":"video","categoryS":"3d","magnet":"?xt=urn:btih:fdcf97ea84e4f8a2043ee96e8a1c0bce3693a754&amp;dn=Step+Up+3D+Real+3D+Half+SBS+1080p+AC3+MKV&amp;tr=udp%3A%2F%2Ftracker.openbittorrent.com%3A80&amp;tr=udp%3A%2F%2Fopen.demonii.com%3A1337&amp;tr=udp%3A%2F%2Ftracker.coppersurfer.tk%3A6969&amp;tr=udp%3A%2F%2Fexodus.desync.com%3A6969","seeders":1,"leechers":1,"uploader":"nexuswolf","files":1,"time":1330968381,"description":"_____________________________________________________________________________________\n\nPlot: After Defeating His Arch Nemesis Metroman, A Super-villain Megamind tries to \n\nfigure out wat to do next.\n_____________________________________________________________________________________\n\nThis Movie Has Been Optimised For LG Cinema3D\n_____________________________________________________________________________________\n\nAny Queries Shud B Put Forth In The Comment Section. I will Try To Answer It As Soon\n\nAs Possible\n_____________________________________________________________________________________\n\nNote:\n\nThis Is Real Half Side-By-Side 3D.\n\nLanguage : English\n\n3D Type  : Stereoscopic 3D\n\nTo watch It In Anaglyph, Download Stereoscopic Player\n_____________________________________________________________________________________\n\nFormat                                   : Matroska\nFormat version                           : Version 2\nFile size                                : 1.45 GiB\nDuration                                 : 1h 47mn\nOverall bit rate                         : 1 931 Kbps\nEncoded date                             : UTC 2012-03-05 15:50:26\nWriting application                      : Lavf54.0.100\nWriting library                          : Lavf54.0.100\n\nVideo\nID                                       : 1\nFormat                                   : AVC\nFormat/Info                              : Advanced Video Codec\nFormat profile                           : &lt;a class=&quot;__cf_email__&quot; href=&quot;/cdn-cgi/l/email-protection&quot; data-cfemail=&quot;93dbfaf4fbd3dfa7bda2&quot;&gt;[email&amp;#160;protected]&lt;/a&gt;&lt;script cf-hash='f9e31' type=&quot;text/javascript&quot;&gt;\n/* &lt;![CDATA[ */!function(){try{var t=&quot;currentScript&quot;in document?document.currentScript:function(){for(var t=document.getElementsByTagName(&quot;script&quot;),e=t.length;e--;)if(t[e].getAttribute(&quot;cf-hash&quot;))return t[e]}();if(t&amp;&amp;t.previousSibling){var e,r,n,i,c=t.previousSibling,a=c.getAttribute(&quot;data-cfemail&quot;);if(a){for(e=&quot;&quot;,r=parseInt(a.substr(0,2),16),n=2;a.length-n;n+=2)i=parseInt(a.substr(n,2),16)^r,e+=String.fromCharCode(i);e=document.createTextNode(e),c.parentNode.replaceChild(e,c)}}}catch(u){}}();/* ]]&gt; */&lt;/script&gt;\nFormat settings, CABAC                   : Yes\nFormat settings, ReFrames                : 2 frames\nCodec ID                                 : V_MPEG4/ISO/AVC\nDuration                                 : 1h 47mn\nBit rate                                 : 1 500 Kbps\nWidth                                    : 1 920 pixels\nHeight                                   : 1 080 pixels\nDisplay aspect ratio                     : 16:9\nFrame rate mode                          : Variable\nFrame rate                               : 23.976 fps\nColor space                              : YUV\nChroma subsampling                       : 4:2:0\nBit depth                                : 8 bits\nScan type                                : Progressive\nBits/(Pixel*Frame)                       : 0.030\nStream size                              : 1.08 GiB (75%)\nTitle                                    : Step Up 3D [Half SBS] [Full HD] [3D]\nLanguage                                 : zzx\n\nAudio\nID                                       : 2\nFormat                                   : AC-3\nFormat/Info                              : Audio Coding 3\nMode extension                           : CM (complete main)\nCodec ID                                 : A_AC3\nDuration                                 : 1h 47mn\nBit rate mode                            : Constant\nBit rate                                 : 448 Kbps\nChannel(s)                               : 6 channels\nChannel positions                        : Front: L C R, Side: L R, LFE\nSampling rate                            : 48.0 KHz\nBit depth                                : 16 bits\nCompression mode                         : Lossy\nStream size                              : 343 MiB (23%)\nTitle                                    : English\nLanguage                                 : English\n_____________________________________________________________________________________\n\n- Nexus Wolf\n_____________________________________________________________________________________\n\t\t","torrent":{"xt":"urn:btih:fdcf97ea84e4f8a2043ee96e8a1c0bce3693a754","amp;dn":"Step+Up+3D+Real+3D+Half+SBS+1080p+AC3+MKV","amp;tr":["udp%3A%2F%2Ftracker.openbittorrent.com%3A80","udp%3A%2F%2Fopen.demonii.com%3A1337","udp%3A%2F%2Ftracker.coppersurfer.tk%3A6969","udp%3A%2F%2Fexodus.desync.com%3A6969"],"infoHash":"fdcf97ea84e4f8a2043ee96e8a1c0bce3693a754","infoHashBuffer":{"type":"Buffer","data":[253,207,151,234,132,228,248,162,4,62,233,110,138,28,11,206,54,147,167,84]},"announce":[],"urlList":[]}}